<svg width="413" height="53" viewBox="0 0 413 53" fill="none" xmlns="http://www.w3.org/2000/svg">
<rect width="413" height="53" rx="8" fill="#EAECE5"/>
<path d="M20.4091 33V21.3636H27.4318V22.6136H21.8182V26.5455H27.0682V27.7955H21.8182V31.75H27.5227V33H20.4091ZM34.7898 27.3864V28.6364H29.6989V27.3864H34.7898ZM37.1491 33V24.2727H38.4446V25.6364H38.5582C38.7401 25.1705 39.0336 24.8087 39.4389 24.5511C39.8442 24.2898 40.331 24.1591 40.8991 24.1591C41.4749 24.1591 41.9541 24.2898 42.3366 24.5511C42.723 24.8087 43.0241 25.1705 43.2401 25.6364H43.331C43.5545 25.1856 43.8897 24.8277 44.3366 24.5625C44.7836 24.2936 45.3196 24.1591 45.9446 24.1591C46.7249 24.1591 47.3632 24.4034 47.8594 24.892C48.3556 25.3769 48.6037 26.1326 48.6037 27.1591V33H47.2628V27.1591C47.2628 26.5152 47.0866 26.0549 46.7344 25.7784C46.3821 25.5019 45.9673 25.3636 45.4901 25.3636C44.8764 25.3636 44.401 25.5492 44.0639 25.9205C43.7268 26.2879 43.5582 26.7538 43.5582 27.3182V33H42.1946V27.0227C42.1946 26.5265 42.0336 26.1269 41.7116 25.8239C41.3897 25.517 40.9749 25.3636 40.4673 25.3636C40.1188 25.3636 39.7931 25.4564 39.4901 25.642C39.1908 25.8277 38.9484 26.0852 38.7628 26.4148C38.581 26.7405 38.4901 27.1174 38.4901 27.5455V33H37.1491ZM53.6236 33.2045C53.0705 33.2045 52.5687 33.1004 52.1179 32.892C51.6671 32.6799 51.3092 32.375 51.044 31.9773C50.7789 31.5758 50.6463 31.0909 50.6463 30.5227C50.6463 30.0227 50.7448 29.6174 50.9418 29.3068C51.1387 28.9924 51.402 28.7462 51.7315 28.5682C52.0611 28.3902 52.4247 28.2576 52.8224 28.1705C53.224 28.0795 53.6274 28.0076 54.0327 27.9545C54.563 27.8864 54.9929 27.8352 55.3224 27.8011C55.6558 27.7633 55.8982 27.7008 56.0497 27.6136C56.205 27.5265 56.2827 27.375 56.2827 27.1591V27.1136C56.2827 26.553 56.1293 26.1174 55.8224 25.8068C55.5194 25.4962 55.0592 25.3409 54.4418 25.3409C53.8016 25.3409 53.2997 25.4811 52.9361 25.7614C52.5724 26.0417 52.3168 26.3409 52.169 26.6591L50.8963 26.2045C51.1236 25.6742 51.4266 25.2614 51.8054 24.9659C52.188 24.6667 52.6046 24.4583 53.0554 24.3409C53.5099 24.2197 53.9569 24.1591 54.3963 24.1591C54.6766 24.1591 54.9986 24.1932 55.3622 24.2614C55.7296 24.3258 56.0838 24.4602 56.4247 24.6648C56.7694 24.8693 57.0554 25.178 57.2827 25.5909C57.5099 26.0038 57.6236 26.5568 57.6236 27.25V33H56.2827V31.8182H56.2145C56.1236 32.0076 55.9721 32.2102 55.7599 32.4261C55.5478 32.642 55.2656 32.8258 54.9134 32.9773C54.5611 33.1288 54.1312 33.2045 53.6236 33.2045ZM53.8281 32C54.3584 32 54.8054 31.8958 55.169 31.6875C55.5365 31.4792 55.813 31.2102 55.9986 30.8807C56.188 30.5511 56.2827 30.2045 56.2827 29.8409V28.6136C56.2259 28.6818 56.1009 28.7443 55.9077 28.8011C55.7183 28.8542 55.4986 28.9015 55.2486 28.9432C55.0024 28.9811 54.7618 29.0152 54.527 29.0455C54.2959 29.072 54.1084 29.0947 53.9645 29.1136C53.616 29.1591 53.2902 29.233 52.9872 29.3352C52.688 29.4337 52.4455 29.5833 52.2599 29.7841C52.0781 29.9811 51.9872 30.25 51.9872 30.5909C51.9872 31.0568 52.1596 31.4091 52.5043 31.6477C52.8527 31.8826 53.294 32 53.8281 32ZM60.071 33V24.2727H61.4119V33H60.071ZM60.7528 22.8182C60.4915 22.8182 60.2661 22.7292 60.0767 22.5511C59.8911 22.3731 59.7983 22.1591 59.7983 21.9091C59.7983 21.6591 59.8911 21.4451 60.0767 21.267C60.2661 21.089 60.4915 21 60.7528 21C61.0142 21 61.2377 21.089 61.4233 21.267C61.6127 21.4451 61.7074 21.6591 61.7074 21.9091C61.7074 22.1591 61.6127 22.3731 61.4233 22.5511C61.2377 22.7292 61.0142 22.8182 60.7528 22.8182ZM65.2088 21.3636V33H63.8679V21.3636H65.2088Z" fill="#383838"/>
</svg>
