<svg width="413" height="53" viewBox="0 0 413 53" fill="none" xmlns="http://www.w3.org/2000/svg">
<rect width="413" height="53" rx="8" fill="#EAECE5"/>
<path d="M19.7727 22.6136V21.3636H28.5V22.6136H24.8409V33H23.4318V22.6136H19.7727ZM32.8864 33.1818C32.0455 33.1818 31.3201 32.9962 30.7102 32.625C30.1042 32.25 29.6364 31.7273 29.3068 31.0568C28.9811 30.3826 28.8182 29.5985 28.8182 28.7045C28.8182 27.8106 28.9811 27.0227 29.3068 26.3409C29.6364 25.6553 30.0947 25.1212 30.6818 24.7386C31.2727 24.3523 31.9621 24.1591 32.75 24.1591C33.2045 24.1591 33.6534 24.2348 34.0966 24.3864C34.5398 24.5379 34.9432 24.7841 35.3068 25.125C35.6705 25.4621 35.9602 25.9091 36.1761 26.4659C36.392 27.0227 36.5 27.7083 36.5 28.5227V29.0909H29.7727V27.9318H35.1364C35.1364 27.4394 35.0379 27 34.8409 26.6136C34.6477 26.2273 34.3712 25.9223 34.0114 25.6989C33.6553 25.4754 33.2348 25.3636 32.75 25.3636C32.2159 25.3636 31.7538 25.4962 31.3636 25.7614C30.9773 26.0227 30.6799 26.3636 30.4716 26.7841C30.2633 27.2045 30.1591 27.6553 30.1591 28.1364V28.9091C30.1591 29.5682 30.2727 30.1269 30.5 30.5852C30.7311 31.0398 31.0511 31.3864 31.4602 31.625C31.8693 31.8598 32.3447 31.9773 32.8864 31.9773C33.2386 31.9773 33.5568 31.928 33.8409 31.8295C34.1288 31.7273 34.3769 31.5758 34.5852 31.375C34.7936 31.1705 34.9545 30.9167 35.0682 30.6136L36.3636 30.9773C36.2273 31.4167 35.9981 31.803 35.6761 32.1364C35.3542 32.4659 34.9564 32.7235 34.483 32.9091C34.0095 33.0909 33.4773 33.1818 32.8864 33.1818ZM39.8807 21.3636V33H38.5398V21.3636H39.8807ZM45.9957 33.1818C45.1548 33.1818 44.4295 32.9962 43.8196 32.625C43.2135 32.25 42.7457 31.7273 42.4162 31.0568C42.0904 30.3826 41.9276 29.5985 41.9276 28.7045C41.9276 27.8106 42.0904 27.0227 42.4162 26.3409C42.7457 25.6553 43.2041 25.1212 43.7912 24.7386C44.3821 24.3523 45.0715 24.1591 45.8594 24.1591C46.3139 24.1591 46.7628 24.2348 47.206 24.3864C47.6491 24.5379 48.0526 24.7841 48.4162 25.125C48.7798 25.4621 49.0696 25.9091 49.2855 26.4659C49.5014 27.0227 49.6094 27.7083 49.6094 28.5227V29.0909H42.8821V27.9318H48.2457C48.2457 27.4394 48.1473 27 47.9503 26.6136C47.7571 26.2273 47.4806 25.9223 47.1207 25.6989C46.7647 25.4754 46.3442 25.3636 45.8594 25.3636C45.3253 25.3636 44.8632 25.4962 44.473 25.7614C44.0866 26.0227 43.7893 26.3636 43.581 26.7841C43.3726 27.2045 43.2685 27.6553 43.2685 28.1364V28.9091C43.2685 29.5682 43.3821 30.1269 43.6094 30.5852C43.8404 31.0398 44.1605 31.3864 44.5696 31.625C44.9787 31.8598 45.4541 31.9773 45.9957 31.9773C46.348 31.9773 46.6662 31.928 46.9503 31.8295C47.2382 31.7273 47.4863 31.5758 47.6946 31.375C47.9029 31.1705 48.0639 30.9167 48.1776 30.6136L49.473 30.9773C49.3366 31.4167 49.1075 31.803 48.7855 32.1364C48.4635 32.4659 48.0658 32.7235 47.5923 32.9091C47.1188 33.0909 46.5866 33.1818 45.9957 33.1818ZM55.5355 24.2727V25.4091H50.831V24.2727H55.5355ZM52.2401 33V23.0682C52.2401 22.5682 52.3575 22.1515 52.5923 21.8182C52.8272 21.4848 53.1321 21.2348 53.5071 21.0682C53.8821 20.9015 54.2779 20.8182 54.6946 20.8182C55.0241 20.8182 55.2931 20.8447 55.5014 20.8977C55.7098 20.9508 55.8651 21 55.9673 21.0455L55.581 22.2045C55.5128 22.1818 55.4181 22.1534 55.2969 22.1193C55.1795 22.0852 55.0241 22.0682 54.831 22.0682C54.3878 22.0682 54.0677 22.1799 53.8707 22.4034C53.6776 22.6269 53.581 22.9545 53.581 23.3864V33H52.2401ZM60.6009 33.1818C59.813 33.1818 59.1217 32.9943 58.527 32.6193C57.9361 32.2443 57.474 31.7197 57.1406 31.0455C56.8111 30.3712 56.6463 29.5833 56.6463 28.6818C56.6463 27.7727 56.8111 26.9792 57.1406 26.3011C57.474 25.6231 57.9361 25.0966 58.527 24.7216C59.1217 24.3466 59.813 24.1591 60.6009 24.1591C61.3887 24.1591 62.0781 24.3466 62.669 24.7216C63.2637 25.0966 63.7259 25.6231 64.0554 26.3011C64.3887 26.9792 64.5554 27.7727 64.5554 28.6818C64.5554 29.5833 64.3887 30.3712 64.0554 31.0455C63.7259 31.7197 63.2637 32.2443 62.669 32.6193C62.0781 32.9943 61.3887 33.1818 60.6009 33.1818ZM60.6009 31.9773C61.1993 31.9773 61.6918 31.8239 62.0781 31.517C62.4645 31.2102 62.7505 30.8068 62.9361 30.3068C63.1217 29.8068 63.2145 29.2652 63.2145 28.6818C63.2145 28.0985 63.1217 27.5549 62.9361 27.0511C62.7505 26.5473 62.4645 26.1402 62.0781 25.8295C61.6918 25.5189 61.1993 25.3636 60.6009 25.3636C60.0024 25.3636 59.5099 25.5189 59.1236 25.8295C58.7372 26.1402 58.4512 26.5473 58.2656 27.0511C58.08 27.5549 57.9872 28.0985 57.9872 28.6818C57.9872 29.2652 58.08 29.8068 58.2656 30.3068C58.4512 30.8068 58.7372 31.2102 59.1236 31.517C59.5099 31.8239 60.0024 31.9773 60.6009 31.9773ZM67.9432 27.75V33H66.6023V24.2727H67.8977V25.6364H68.0114C68.2159 25.1932 68.5265 24.8371 68.9432 24.5682C69.3598 24.2955 69.8977 24.1591 70.5568 24.1591C71.1477 24.1591 71.6648 24.2803 72.108 24.5227C72.5511 24.7614 72.8958 25.125 73.142 25.6136C73.3883 26.0985 73.5114 26.7121 73.5114 27.4545V33H72.1705V27.5455C72.1705 26.8598 71.9924 26.3258 71.6364 25.9432C71.2803 25.5568 70.7917 25.3636 70.1705 25.3636C69.7424 25.3636 69.3598 25.4564 69.0227 25.642C68.6894 25.8277 68.4261 26.0985 68.233 26.4545C68.0398 26.8106 67.9432 27.2424 67.9432 27.75ZM79.6207 33.1818C78.7798 33.1818 78.0545 32.9962 77.4446 32.625C76.8385 32.25 76.3707 31.7273 76.0412 31.0568C75.7154 30.3826 75.5526 29.5985 75.5526 28.7045C75.5526 27.8106 75.7154 27.0227 76.0412 26.3409C76.3707 25.6553 76.8291 25.1212 77.4162 24.7386C78.0071 24.3523 78.6965 24.1591 79.4844 24.1591C79.9389 24.1591 80.3878 24.2348 80.831 24.3864C81.2741 24.5379 81.6776 24.7841 82.0412 25.125C82.4048 25.4621 82.6946 25.9091 82.9105 26.4659C83.1264 27.0227 83.2344 27.7083 83.2344 28.5227V29.0909H76.5071V27.9318H81.8707C81.8707 27.4394 81.7723 27 81.5753 26.6136C81.3821 26.2273 81.1056 25.9223 80.7457 25.6989C80.3897 25.4754 79.9692 25.3636 79.4844 25.3636C78.9503 25.3636 78.4882 25.4962 78.098 25.7614C77.7116 26.0227 77.4143 26.3636 77.206 26.7841C76.9976 27.2045 76.8935 27.6553 76.8935 28.1364V28.9091C76.8935 29.5682 77.0071 30.1269 77.2344 30.5852C77.4654 31.0398 77.7855 31.3864 78.1946 31.625C78.6037 31.8598 79.0791 31.9773 79.6207 31.9773C79.973 31.9773 80.2912 31.928 80.5753 31.8295C80.8632 31.7273 81.1113 31.5758 81.3196 31.375C81.5279 31.1705 81.6889 30.9167 81.8026 30.6136L83.098 30.9773C82.9616 31.4167 82.7325 31.803 82.4105 32.1364C82.0885 32.4659 81.6908 32.7235 81.2173 32.9091C80.7438 33.0909 80.2116 33.1818 79.6207 33.1818Z" fill="#383838"/>
</svg>
